Coordinates
version=1
nRows=13
nColumns=40
inDegrees=yes

Units are S.I. units (second, meters, Newtons, ...)
Angles are in degrees.

endheader
time	pelvis_tilt	pelvis_list	pelvis_rotation	pelvis_tx	pelvis_ty	pelvis_tz	hip_flexion_r	hip_adduction_r	hip_rotation_r	knee_angle_r	knee_angle_r_beta	ankle_angle_r	subtalar_angle_r	mtp_angle_r	hip_flexion_l	hip_adduction_l	hip_rotation_l	knee_angle_l	knee_angle_l_beta	ankle_angle_l	subtalar_angle_l	mtp_angle_l	lumbar_extension	lumbar_bending	lumbar_rotation	arm_flex_r	arm_add_r	arm_rot_r	elbow_flex_r	pro_sup_r	wrist_flex_r	wrist_dev_r	arm_flex_l	arm_add_l	arm_rot_l	elbow_flex_l	pro_sup_l	wrist_flex_l	wrist_dev_l
     10.50000000	      5.23819195	     22.53784879	     71.67081814	      0.54219622	      1.01280188	     -1.27048748	      1.23475170	     -3.74587881	      6.77606609	     68.34624630	      1.19286703	      0.44723139	      0.00000000	      0.00000000	    -10.31407132	      1.83759854	    -11.87868743	     15.19398587	      0.26518508	     10.18431764	      0.00000000	      0.00000000	    -34.14165256	     -3.43193217	      4.29029335	      0.56279923	    -13.82743416	      5.93654199	    143.03316506	     88.02333963	      0.00000000	      0.00000000	     -6.43926392	    -19.50686981	     -7.80817666	    144.52940689	     85.22951211	      0.00000000	      0.00000000
     10.51000000	      3.51790706	     23.92267808	     71.15342700	      0.54300627	      1.00704727	     -1.26896964	      2.92514990	     -5.93012982	      7.81043429	     71.25751757	      1.24367830	      2.10307597	      0.00000000	      0.00000000	    -10.70735749	      4.18437412	    -12.93207405	     17.33045034	      0.30247342	     11.82883277	      0.00000000	      0.00000000	    -35.68259986	     -5.93775808	      3.10912719	      1.53245800	    -13.03885919	      6.49973454	    142.53789757	     88.04072663	      0.00000000	      0.00000000	     -4.83772596	    -21.50967799	     -7.41551924	    144.30131120	     84.85084324	      0.00000000	      0.00000000
     10.52000000	      2.56788340	     24.79535155	     70.78533450	      0.54395842	      1.00203565	     -1.26734491	      4.61986014	     -6.92620543	      8.58991138	     73.29613980	      1.27925897	      3.53497812	      0.00000000	      0.00000000	    -10.22487879	      5.32546476	    -13.22710553	     20.78264834	      0.36272564	     14.13304974	      0.00000000	      0.00000000	    -36.92199959	     -7.42976422	      2.05302284	      2.45002441	    -12.17287077	      6.82303594	    141.89902563	     88.03031425	      0.00000000	      0.00000000	     -3.20862677	    -23.16595135	     -6.71547910	    143.77137854	     84.45836205	      0.00000000	      0.00000000
     10.53000000	      2.06114481	     24.62529707	     70.84728705	      0.54433223	      0.99704764	     -1.26657618	      6.91322428	     -7.08039382	      8.74850267	     74.62934078	      1.30252772	      4.92743135	      0.00000000	      0.00000000	     -8.60816451	      5.52130150	    -12.73822652	     24.81392976	      0.43308477	     16.36654761	      0.00000000	      0.00000000	    -37.16618842	     -7.86072396	      1.01208808	      2.90951649	    -11.28909334	      6.95216210	    141.10582829	     88.01149363	      0.00000000	      0.00000000	     -1.95217649	    -24.35891391	     -5.78438450	    143.13247694	     83.81910480	      0.00000000	      0.00000000
     10.54000000	      2.01091744	     23.93898628	     71.01908256	      0.54404207	      0.99276480	     -1.26640498	      9.27728479	     -6.53735149	      8.60413880	     75.25176260	      1.31339103	      6.12135750	      0.00000000	      0.00000000	     -6.94971503	      5.15983374	    -12.13326165	     28.20653552	      0.49229692	     18.26793159	      0.00000000	      0.00000000	    -36.96456941	     -7.48558043	      0.12161679	      3.10504692	    -10.47654549	      6.81374145	    140.51890333	     88.00652644	      0.00000000	      0.00000000	     -1.12024666	    -24.96453683	     -4.80224897	    142.50325032	     83.49298422	      0.00000000	      0.00000000
     10.55000000	      2.42971801	     23.20260066	     71.07563020	      0.54364595	      0.98978418	     -1.26641680	     11.23234190	     -5.49824569	      8.27773836	     75.15853824	      1.31176395	      7.10562506	      0.00000000	      0.00000000	     -5.91386488	      4.38935734	    -11.86801814	     30.57694186	      0.53366831	     19.71102467	      0.00000000	      0.00000000	    -36.81714245	     -6.62296352	     -0.48031825	      3.08915302	     -9.82285817	      6.51991827	    140.19335576	     88.03771053	      0.00000000	      0.00000000	     -0.49557595	    -25.10145979	     -3.90560095	    142.12277777	     83.53049595	      0.00000000	      0.00000000
     10.56000000	      2.94557511	     22.71061027	     70.97838225	      0.54359011	      0.98826401	     -1.26644320	     12.65180965	     -4.48186512	      7.97460155	     74.36125280	      1.29784870	      8.41599176	      0.00000000	      0.00000000	     -5.63574082	      3.67056318	    -11.98435299	     32.03315114	      0.55908396	     20.57875725	      0.00000000	      0.00000000	    -36.93318744	     -5.81971669	     -0.92181891	      2.97789743	     -9.22338965	      6.20845270	    140.12830777	     88.07307437	      0.00000000	      0.00000000	     -0.08891058	    -25.02956925	     -3.12720659	    142.07683896	     83.57268492	      0.00000000	      0.00000000
     10.57000000	      3.52902477	     21.92614331	     70.98210811	      0.54347790	      0.98727575	     -1.26652857	     14.14568453	     -3.33298559	      7.49707390	     73.02186272	      1.27447193	      9.09986620	      0.00000000	      0.00000000	     -5.28089308	      2.85646077	    -11.98670111	     33.15860096	      0.57872676	     21.62937401	      0.00000000	      0.00000000	    -36.77469543	     -4.80356932	     -1.19402624	      2.63843748	     -8.69022262	      5.90058906	    140.23467282	     88.19337243	      0.00000000	      0.00000000	      0.22381965	    -24.62139957	     -2.38741835	    142.01328935	     83.76851302	      0.00000000	      0.00000000
     10.58000000	      3.97948423	     21.27565640	     70.82793227	      0.54363905	      0.98716686	     -1.26690996	     15.34653255	     -2.38352029	      7.16321605	     71.30513758	      1.24450942	      9.49968011	      0.00000000	      0.00000000	     -5.46312073	      2.39933731	    -12.11686418	     33.47810012	      0.58430307	     22.43430094	      0.00000000	      0.00000000	    -36.70657015	     -4.03166630	     -1.39483951	      2.34803406	     -8.29539591	      5.71611670	    140.42785733	     88.18142438	      0.00000000	      0.00000000	      0.21009607	    -24.10566458	     -1.85541445	    142.17568205	     83.89044079	      0.00000000	      0.00000000
     10.59000000	      4.72273778	     20.84493857	     70.67525781	      0.54400126	      0.98811969	     -1.26720489	     15.85501903	     -1.23364226	      6.65114719	     68.87611359	      1.20211496	      9.84978168	      0.00000000	      0.00000000	     -6.12103103	      1.73705346	    -12.26700583	     33.53861964	      0.58535934	     23.08191375	      0.00000000	      0.00000000	    -36.97560250	     -3.06277924	     -1.46239530	      2.11476769	     -8.00939834	      5.65612878	    140.71839681	     88.23709156	      0.00000000	      0.00000000	      0.23615641	    -23.62909109	     -1.36917992	    142.37063989	     84.11852109	      0.00000000	      0.00000000
     10.60000000	      5.27839346	     20.74800919	     70.49783170	      0.54424731	      0.98995823	     -1.26768482	     15.87841951	     -0.43529475	      6.25383447	     66.02212748	      1.15230350	     10.28300973	      0.00000000	      0.00000000	     -7.28598471	      1.52639554	    -12.25821364	     33.12287757	      0.57810327	     23.40862438	      0.00000000	      0.00000000	    -37.52666294	     -2.35775768	     -1.57813041	      1.91739909	     -7.84604868	      5.73322487	    140.98957764	     88.26405268	      0.00000000	      0.00000000	      0.06223026	    -23.13160110	     -1.03643719	    142.64944074	     84.21121140	      0.00000000	      0.00000000
     10.61000000	      5.44159057	     20.48439518	     70.36457005	      0.54439621	      0.99182203	     -1.26802565	     16.12804494	      0.06077332	      6.08236776	     63.01664898	      1.09984801	     11.24031640	      0.00000000	      0.00000000	     -8.08497443	      1.73767601	    -12.09305073	     32.68861648	      0.57052399	     23.51059472	      0.00000000	      0.00000000	    -37.76946233	     -1.95516684	     -1.72219183	      1.79412438	     -7.76308614	      5.85434278	    141.16033137	     88.21715601	      0.00000000	      0.00000000	     -0.17702904	    -22.56939713	     -0.83826047	    142.74598417	     84.08682348	      0.00000000	      0.00000000
     10.62000000	      6.27786093	     20.47501191	     70.27111031	      0.54496579	      0.99490945	     -1.26872714	     15.39499662	      1.14762901	      5.67792916	     59.21145522	      1.03343485	     11.84353608	      0.00000000	      0.00000000	     -9.52198186	      1.28956639	    -11.92087551	     32.08005923	      0.55990266	     23.53075537	      0.00000000	      0.00000000	    -38.41604152	     -0.99616259	     -1.70127984	      1.65216422	     -7.76201380	      5.90108086	    141.34468338	     88.20440857	      0.00000000	      0.00000000	     -0.60249730	    -21.92605594	     -0.78667609	    142.84507449	     83.95785033	      0.00000000	      0.00000000
